<?xml version="1.0" encoding="UTF-8"?>
<svg width="48px" height="40px" viewBox="0 0 48 40" version="1.1" xmlns="http://www.w3.org/2000/svg" xmlns:xlink="http://www.w3.org/1999/xlink">
    <!-- Generator: Sketch 49 (51002) - http://www.bohemiancoding.com/sketch -->
    <title>Icon / New Friend</title>
    <desc>Created with Sketch.</desc>
    <defs></defs>
    <g id="iPhone-SE---English" stroke="none" stroke-width="1" fill="none" fill-rule="evenodd">
        <g id="WeChat-UI-Kit-English" transform="translate(-3586.000000, -2954.000000)" fill="#FFFFFF">
            <g id="Group-13" transform="translate(3550.000000, 2919.000000)">
                <g id="Group-5">
                    <g id="New-Friend">
                        <g id="New-Friend-Icon-BG-+-Icon-/-New-Friend" transform="translate(20.000000, 19.000000)">
                            <g id="Icon-/-New-Friend" transform="translate(16.000000, 16.000000)">
                                <path d="M27.0834,31 C27.0834,29.624 27.3284,28.309 27.7574,27.079 C26.4474,26.135 25.3204,25.077 24.5854,23.838 C24.3894,23.507 24.5244,22.438 24.5774,22.311 C24.6814,22.061 25.2084,20.937 26.0264,20.063 C26.1864,19.918 26.3374,19.761 26.4894,19.605 C26.5374,19.561 26.5794,19.518 26.6294,19.474 L26.6214,19.471 C28.5534,17.414 29.7654,14.511 29.7654,11.283 C29.7654,5.052 25.2724,0 19.7304,0 C14.1884,0 9.6954,5.052 9.6954,11.283 C9.6954,14.511 10.9074,17.414 12.8394,19.471 L12.8314,19.474 C12.8804,19.518 12.9224,19.561 12.9704,19.605 C13.1224,19.761 13.2734,19.918 13.4344,20.063 C14.2524,20.937 14.7794,22.061 14.8824,22.311 C14.9354,22.438 15.0714,23.507 14.8754,23.838 C11.6504,29.273 0.9094,31.26 0.0774,35.191 C-0.0346,36.528 -0.2006,39.815 1.0014,39.815 C2.2044,39.815 19.7304,40 19.7304,40 C19.7304,40 25.8274,39.936 31.0754,39.883 C28.6314,37.701 27.0834,34.535 27.0834,31" id="Fill-1"></path>
                                <path d="M43.9999,32 L39.9999,32 L39.9999,36 L37.9999,36 L37.9999,32 L33.9999,32 L33.9999,30 L37.9999,30 L37.9999,26 L39.9999,26 L39.9999,30 L43.9999,30 L43.9999,32 Z M38.9999,22 C34.0289,22 29.9999,26.029 29.9999,31 C29.9999,35.971 34.0289,40 38.9999,40 C43.9709,40 47.9999,35.971 47.9999,31 C47.9999,26.029 43.9709,22 38.9999,22 L38.9999,22 Z" id="Fill-4"></path>
                            </g>
                        </g>
                    </g>
                </g>
            </g>
        </g>
    </g>
</svg>